<svg xmlns="http://www.w3.org/2000/svg" version="1.1" xmlns:xlink="http://www.w3.org/1999/xlink" xmlns:svgjs="http://svgjs.com/svgjs" width="1440" height="560" preserveAspectRatio="none" viewBox="0 0 1440 560"><g mask="url(&quot;#SvgjsMask1011&quot;)" fill="none"><rect width="1440" height="560" x="0" y="0" fill="#0e2a47"></rect><path d="M1168.25 306.74a44.89 44.89 0 1 0-41.07 79.83z" stroke="#d3b714"></path><path d="M848.9 231.53 a47.33 47.33 0 1 0 94.66 0 a47.33 47.33 0 1 0 -94.66 0z" stroke="rgba(213, 35, 34, 1)"></path><path d="M505.84 61.32L525.36 61.32L525.36 93.4L505.84 93.4z" stroke="rgba(213, 35, 34, 1)"></path><path d="M234.96 430.33a51.28 51.28 0 1 0 36.56-95.83z" stroke="rgba(213, 35, 34, 1)"></path><path d="M518.85 71.6 a50.76 50.76 0 1 0 101.52 0 a50.76 50.76 0 1 0 -101.52 0z" fill="#037b0b"></path><path d="M1002.12 533.79 a49.46 49.46 0 1 0 98.92 0 a49.46 49.46 0 1 0 -98.92 0z" fill="rgba(213, 35, 34, 1)"></path><path d="M991.18 43.87L996.4 43.87L996.4 49.09L991.18 49.09z" fill="#d3b714"></path><path d="M1175.3 131.43 a9.27 9.27 0 1 0 18.54 0 a9.27 9.27 0 1 0 -18.54 0z" stroke="rgba(213, 35, 34, 1)"></path><path d="M1388.85 316.7a39.29 39.29 0 1 0-53.62-57.44z" fill="rgba(28, 188, 155, 1)"></path><path d="M108.74 360.78L114.38 360.78L114.38 404.42L108.74 404.42z" fill="#037b0b"></path><path d="M347.37 340.92L393.13 340.92L393.13 361.52L347.37 361.52z" fill="#037b0b"></path><path d="M1417.73 70.41a17.25 17.25 0 1 0-31.17 14.79z" fill="rgba(213, 35, 34, 1)"></path><path d="M954.11 525.05 a14.94 14.94 0 1 0 29.88 0 a14.94 14.94 0 1 0 -29.88 0z" fill="#d3b714"></path><path d="M906.59 133.79L918.47 133.79L918.47 145.67L906.59 145.67z" fill="#037b0b"></path><path d="M153.65 443.87 a49.14 49.14 0 1 0 98.28 0 a49.14 49.14 0 1 0 -98.28 0z" fill="rgba(28, 188, 155, 1)"></path><path d="M883.87 217.76L893.2 217.76L893.2 227.09L883.87 227.09z" stroke="#d3b714"></path><path d="M618.34 119.64a33.6 33.6 0 1 0 1.7-67.18z" fill="#d3b714"></path><path d="M1274.86 209.54 a7.95 7.95 0 1 0 15.9 0 a7.95 7.95 0 1 0 -15.9 0z" fill="#d3b714"></path><path d="M1016.08 168.84L1059 168.84L1059 211.76L1016.08 211.76z" fill="#d3b714"></path><path d="M650.23 156.92L657.36 156.92L657.36 164.05L650.23 164.05z" stroke="rgba(213, 35, 34, 1)"></path><path d="M361.06 10.27a43.96 43.96 0 1 0 32.65 81.63z" stroke="rgba(213, 35, 34, 1)"></path><path d="M334.59 309.98L359.11 309.98L359.11 334.5L334.59 334.5z" stroke="#037b0b"></path><path d="M889.7 236.49a1.4 1.4 0 1 0-2.01-1.95z" fill="rgba(213, 35, 34, 1)"></path><path d="M855.43 144.88 a13.01 13.01 0 1 0 26.02 0 a13.01 13.01 0 1 0 -26.02 0z" stroke="#d3b714"></path><path d="M1098.83 114.84L1100.58 114.84L1100.58 116.59L1098.83 116.59z" stroke="rgba(28, 188, 155, 1)"></path><path d="M510.66 368.76a43.58 43.58 0 1 0-78.58 37.71z" stroke="rgba(28, 188, 155, 1)"></path><path d="M723.77 127.7a48.29 48.29 0 1 0 33.96 90.41z" stroke="rgba(28, 188, 155, 1)"></path><path d="M1154.21 455.41a32.72 32.72 0 1 0-56.8 32.5z" stroke="#d3b714"></path><path d="M459.12 548.65L499.53 548.65L499.53 588.78L459.12 588.78z" fill="#d3b714"></path><path d="M882 526.89 a8.92 8.92 0 1 0 17.84 0 a8.92 8.92 0 1 0 -17.84 0z" stroke="rgba(213, 35, 34, 1)"></path><path d="M335.24 268.15 a21.75 21.75 0 1 0 43.5 0 a21.75 21.75 0 1 0 -43.5 0z" fill="#d3b714"></path><path d="M608.7 226.43L626.55 226.43L626.55 272.19L608.7 272.19z" stroke="#037b0b"></path><path d="M469.54 420.51a11.38 11.38 0 1 0 21.54-7.36z" fill="rgba(213, 35, 34, 1)"></path></g><defs><mask id="SvgjsMask1011"><rect width="1440" height="560" fill="#ffffff"></rect></mask></defs></svg>